PathFileType	4	(X/Y/Z)	C:\Git\powerlifing_model_clean\simulations\Test1\Session1\HC835B_STD_0001\marker_experimental.trc
DataRate	CameraRate	NumFrames	NumMarkers	Units	OrigDataRate	OrigDataStartFrame	OrigNumFrames
240.000000	240.000000	4	54	mm	240.000000	84	337
Frame#	Time	RPSI			LPSI			RASI			LASI			RGT			RTH1			RTH2			RTH3			RTH4			RLK			RMK			RSK1			RSK2			RSK3			RSK4			RLA			RMA			RCAL1			RCAL2			RCAL3			RST			RPT			RTN			RFMB			RSMB			RVMB			RFMH			RSMH			RVMH			RPM			LGT			LTH1			LTH2			LTH3			LTH4			LLK			LMK			LSK1			LSK2			LSK3			LSK4			LLA			LMA			LCAL1			LCAL2			LCAL3			LFMH			LVMH			RHJC			LHJC			RKJC			LKJC			RAJC			LAJC
		X1	Y1	Z1	X2	Y2	Z2	X3	Y3	Z3	X4	Y4	Z4	X5	Y5	Z5	X6	Y6	Z6	X7	Y7	Z7	X8	Y8	Z8	X9	Y9	Z9	X10	Y10	Z10	X11	Y11	Z11	X12	Y12	Z12	X13	Y13	Z13	X14	Y14	Z14	X15	Y15	Z15	X16	Y16	Z16	X17	Y17	Z17	X18	Y18	Z18	X19	Y19	Z19	X20	Y20	Z20	X21	Y21	Z21	X22	Y22	Z22	X23	Y23	Z23	X24	Y24	Z24	X25	Y25	Z25	X26	Y26	Z26	X27	Y27	Z27	X28	Y28	Z28	X29	Y29	Z29	X30	Y30	Z30	X31	Y31	Z31	X32	Y32	Z32	X33	Y33	Z33	X34	Y34	Z34	X35	Y35	Z35	X36	Y36	Z36	X37	Y37	Z37	X38	Y38	Z38	X39	Y39	Z39	X40	Y40	Z40	X41	Y41	Z41	X42	Y42	Z42	X43	Y43	Z43	X44	Y44	Z44	X45	Y45	Z45	X46	Y46	Z46	X47	Y47	Z47	X48	Y48	Z48	X49	Y49	Z49	X50	Y50	Z50	X51	Y51	Z51	X52	Y52	Z52	X53	Y53	Z53	X54	Y54	Z54
85	0.350000	495.559174	1162.216553	-353.382080	387.145111	1159.618774	-349.641327	555.146301	1105.496338	-557.547119	316.068298	1101.121338	-554.967590	637.576233	1023.965698	-449.167328	639.992126	836.459351	-460.692719	627.728394	819.585388	-517.879639	630.148438	753.665222	-475.810547	606.679321	737.630554	-527.113708	609.320435	552.731079	-457.781616	483.679291	538.668579	-447.259430	613.176514	307.223663	-360.842468	615.072388	287.886536	-419.272278	611.491455	249.500778	-372.083313	600.412781	231.760681	-428.092102	605.400085	114.653061	-359.376282	522.082275	124.321503	-404.234589	560.357788	95.526749	-304.766571	528.756348	58.198681	-314.347015	592.918518	58.797066	-308.772797	517.377319	76.216125	-380.630676	618.273804	72.161087	-367.113495	530.449280	94.484390	-438.326019	537.019104	78.137222	-469.410583	586.296814	101.843468	-477.444824	632.246704	47.641109	-410.233093	537.338623	50.712635	-527.299194	592.010864	65.841011	-537.512451	648.232117	42.277161	-490.580872	582.581848	53.314919	-596.863708	245.138596	1013.039490	-443.644012	239.324097	830.917175	-443.315338	242.462387	813.778931	-501.556152	243.451324	746.324219	-456.830811	263.407104	731.212524	-512.632263	265.914581	564.178894	-441.867798	396.894348	553.567261	-442.901215	257.404449	300.264099	-354.103455	251.413177	279.181030	-403.087708	257.283295	244.873840	-367.804565	267.607788	225.702286	-419.905884	259.355133	115.410599	-363.151215	349.396332	123.703651	-400.642670	306.605988	94.764114	-303.222015	275.796265	58.169624	-303.458984	334.138428	56.384438	-307.934082	344.717834	55.292683	-530.620239	229.761902	41.516151	-492.990295	523.829601	1041.826222	-476.159926	351.441413	1038.671610	-474.299946	546.499863	545.699829	-452.520523	331.404465	558.873077	-442.384506	563.741180	119.487282	-381.805435	304.375732	119.557125	-381.896942
86	0.354167	495.545135	1162.205811	-353.413361	387.131653	1159.611084	-349.686035	555.154602	1105.490967	-557.583008	316.077881	1101.129639	-554.985779	637.557007	1023.960571	-449.155731	639.954163	836.380737	-460.721771	627.735291	819.589539	-517.889771	630.120544	753.647156	-475.831085	606.672485	737.608398	-527.134338	609.332153	552.742676	-457.781799	483.660492	538.677490	-447.281830	613.181274	307.233826	-360.852234	615.107361	287.912231	-419.270294	611.499146	249.488403	-372.088440	600.427307	231.757217	-428.100250	605.356506	114.695984	-359.296997	522.067322	124.270866	-404.232330	560.361328	95.512596	-304.772461	528.766968	58.215401	-314.322021	592.827271	58.802357	-308.791962	517.367432	76.227119	-380.636871	618.416870	72.278549	-367.020752	530.492065	94.493599	-438.308441	537.020142	78.111252	-469.420929	586.303650	101.832314	-477.449402	632.359985	47.725468	-410.202972	537.295044	50.740250	-527.348083	592.002380	65.831924	-537.518188	648.241150	42.275444	-490.581177	582.574219	53.314419	-596.840454	245.073563	1013.072449	-443.622681	239.318848	830.910095	-443.352142	242.451797	813.786194	-501.592590	243.451324	746.301086	-456.876251	263.377869	731.215576	-512.666504	265.926971	564.161011	-441.883240	396.901459	553.569336	-442.925079	257.429108	300.268127	-354.148926	251.437531	279.200317	-403.113953	257.265564	244.868668	-367.813385	267.615387	225.676468	-419.920441	259.359985	115.415154	-363.147400	349.434662	123.693329	-400.634521	306.601379	94.780327	-303.220306	275.804901	58.148151	-303.460815	334.104767	56.399620	-307.910553	344.695160	55.257858	-530.628174	229.754852	41.530056	-492.981903	523.840522	1041.819727	-476.198713	351.453176	1038.674972	-474.325969	546.496323	545.710083	-452.531815	331.414215	558.865173	-442.404160	563.711914	119.483425	-381.764664	304.397324	119.554241	-381.890961
87	0.358333	495.518005	1162.202271	-353.429291	387.096436	1159.613159	-349.723724	555.161682	1105.512085	-557.598328	316.022797	1101.120361	-555.028076	637.559875	1023.969116	-449.160614	639.926208	836.371582	-460.742157	627.723145	819.580750	-517.917847	630.134155	753.666260	-475.851807	606.690613	737.608704	-527.148438	609.350464	552.738953	-457.805054	483.695557	538.704895	-447.286530	613.159912	307.259888	-360.854248	615.069946	287.901184	-419.261383	611.490051	249.480270	-372.089050	600.414246	231.773483	-428.094452	605.405640	114.686432	-359.345123	522.010132	124.162178	-404.218933	560.360352	95.498337	-304.772064	528.740906	58.196289	-314.384125	592.834229	58.804665	-308.795288	517.363037	76.232307	-380.620483	618.461975	72.282349	-367.043060	530.479431	94.507591	-438.343750	536.989075	78.110550	-469.387634	586.228027	101.774628	-477.448120	632.259827	47.662415	-410.220825	537.312866	50.736313	-527.322449	591.999512	65.842552	-537.520264	648.258240	42.298584	-490.590302	582.583618	53.331619	-596.835266	245.068115	1013.055664	-443.649109	239.327164	830.898560	-443.369537	242.412659	813.785461	-501.623474	243.435181	746.304993	-456.872681	263.407013	731.184204	-512.689453	265.891388	564.174133	-441.891998	396.904724	553.603699	-442.925323	257.423279	300.214081	-354.157623	251.424271	279.166779	-403.097656	257.273010	244.883972	-367.810974	267.577301	225.689667	-419.917877	259.366913	115.363739	-363.184052	349.429871	123.702660	-400.645203	306.604126	94.777313	-303.201385	275.790924	58.189106	-303.468140	334.130829	56.372303	-307.935730	344.742371	55.291534	-530.633728	229.758575	41.535587	-492.988251	523.835788	1041.815773	-476.214846	351.407428	1038.649171	-474.361596	546.523010	545.721924	-452.545792	331.398056	558.888916	-442.408661	563.707886	119.424305	-381.782028	304.398392	119.533199	-381.914627
88	0.362500	495.490234	1162.203369	-353.461700	387.077759	1159.614136	-349.734100	555.154053	1105.498901	-557.606262	316.087677	1101.095215	-555.039001	637.526794	1023.955750	-449.211914	639.906311	836.380615	-460.751160	627.699829	819.576660	-517.911743	630.066772	753.613037	-475.852661	606.669495	737.602661	-527.142761	609.329529	552.733765	-457.808258	483.663239	538.658325	-447.279602	613.176025	307.249237	-360.869415	615.087952	287.895477	-419.274139	611.505615	249.488129	-372.076752	600.394043	231.749283	-428.102661	605.372925	114.619263	-359.406647	522.059753	124.296913	-404.261475	560.373657	95.506638	-304.797852	528.759766	58.199883	-314.367584	592.924011	58.804234	-308.767914	517.364380	76.225388	-380.632965	618.261963	72.162659	-367.122437	530.422241	94.499359	-438.313477	536.993591	78.148544	-469.458160	586.231445	101.752563	-477.428589	632.307922	47.713844	-410.217377	537.291992	50.765633	-527.320435	591.985046	65.843948	-537.524353	648.244385	42.280460	-490.586975	582.562866	53.318237	-596.872986	245.052704	1013.037598	-443.720886	239.297302	830.903015	-443.402283	242.433395	813.772522	-501.637238	243.379303	746.304626	-456.930267	263.374786	731.184448	-512.715088	265.915833	564.166626	-441.917053	396.887512	553.562256	-442.940460	257.413055	300.277161	-354.129333	251.434540	279.129700	-403.083374	257.258362	244.899460	-367.808807	267.600555	225.684326	-419.921753	259.349640	115.407822	-363.157898	349.445007	123.715050	-400.647430	306.623199	94.780304	-303.206299	275.808472	58.159958	-303.468628	334.128448	56.382896	-307.929565	344.708221	55.283112	-530.612549	229.727036	41.538818	-492.976807	523.842689	1041.830368	-476.223855	351.462199	1038.655059	-474.372713	546.496384	545.696045	-452.543930	331.401672	558.864441	-442.428757	563.716339	119.458088	-381.834061	304.397324	119.561436	-381.902664
